<mxfile host="app.diagrams.net" modified="2023-04-12T19:58:04.309Z" agent="Mozilla/5.0 (Windows NT 10.0; Win64; x64) AppleWebKit/537.36 (KHTML, like Gecko) Chrome/112.0.0.0 Safari/537.36" etag="0hkEzjyRPNLQm0VBQyNk" version="21.1.5" type="device">
  <diagram name="Страница 1" id="ONnuBV33DulbL8-lrbec">
    <mxGraphModel dx="773" dy="718" grid="1" gridSize="10" guides="1" tooltips="1" connect="1" arrows="1" fold="1" page="1" pageScale="1" pageWidth="827" pageHeight="1169" math="0" shadow="0">
      <root>
        <mxCell id="0" />
        <mxCell id="1" parent="0" />
        <mxCell id="-u48h02nbhvRu0iuAJor-6" value="Abstract documents" style="swimlane;whiteSpace=wrap;html=1;fillColor=#f8cecc;strokeColor=#b85450;rounded=1;dashed=1;dashPattern=12 12;" vertex="1" parent="1">
          <mxGeometry x="1220" y="250" width="230" height="540" as="geometry" />
        </mxCell>
        <mxCell id="-u48h02nbhvRu0iuAJor-7" value="abstract.application-list.ts" style="rounded=1;whiteSpace=wrap;html=1;fillColor=#fff2cc;strokeColor=#d6b656;" vertex="1" parent="-u48h02nbhvRu0iuAJor-6">
          <mxGeometry x="20" y="50" width="180" height="30" as="geometry" />
        </mxCell>
        <mxCell id="-u48h02nbhvRu0iuAJor-8" value="abstract.application.ts" style="rounded=1;whiteSpace=wrap;html=1;fillColor=#fff2cc;strokeColor=#d6b656;" vertex="1" parent="-u48h02nbhvRu0iuAJor-6">
          <mxGeometry x="20" y="90" width="180" height="30" as="geometry" />
        </mxCell>
        <mxCell id="-u48h02nbhvRu0iuAJor-9" value="abstract.collector.ts" style="rounded=1;whiteSpace=wrap;html=1;fillColor=#fff2cc;strokeColor=#d6b656;" vertex="1" parent="-u48h02nbhvRu0iuAJor-6">
          <mxGeometry x="20" y="130" width="180" height="30" as="geometry" />
        </mxCell>
        <mxCell id="-u48h02nbhvRu0iuAJor-10" value="abstract.router.ts" style="rounded=1;whiteSpace=wrap;html=1;fillColor=#fff2cc;strokeColor=#d6b656;" vertex="1" parent="-u48h02nbhvRu0iuAJor-6">
          <mxGeometry x="20" y="170" width="180" height="30" as="geometry" />
        </mxCell>
        <mxCell id="-u48h02nbhvRu0iuAJor-11" value="abstract.controller.ts" style="rounded=1;whiteSpace=wrap;html=1;fillColor=#fff2cc;strokeColor=#d6b656;" vertex="1" parent="-u48h02nbhvRu0iuAJor-6">
          <mxGeometry x="20" y="210" width="180" height="30" as="geometry" />
        </mxCell>
        <mxCell id="-u48h02nbhvRu0iuAJor-12" value="abstract.middleware.ts" style="rounded=1;whiteSpace=wrap;html=1;fillColor=#fff2cc;strokeColor=#d6b656;" vertex="1" parent="-u48h02nbhvRu0iuAJor-6">
          <mxGeometry x="20" y="250" width="180" height="30" as="geometry" />
        </mxCell>
        <mxCell id="-u48h02nbhvRu0iuAJor-13" value="abstract.repository.ts" style="rounded=1;whiteSpace=wrap;html=1;fillColor=#fff2cc;strokeColor=#d6b656;" vertex="1" parent="-u48h02nbhvRu0iuAJor-6">
          <mxGeometry x="20" y="290" width="180" height="30" as="geometry" />
        </mxCell>
        <mxCell id="-u48h02nbhvRu0iuAJor-14" value="abstract.entity.ts" style="rounded=1;whiteSpace=wrap;html=1;fillColor=#fff2cc;strokeColor=#d6b656;" vertex="1" parent="-u48h02nbhvRu0iuAJor-6">
          <mxGeometry x="20" y="330" width="180" height="30" as="geometry" />
        </mxCell>
        <mxCell id="-u48h02nbhvRu0iuAJor-15" value="abstract.dictionary.ts" style="rounded=1;whiteSpace=wrap;html=1;fillColor=#fff2cc;strokeColor=#d6b656;" vertex="1" parent="-u48h02nbhvRu0iuAJor-6">
          <mxGeometry x="20" y="370" width="180" height="30" as="geometry" />
        </mxCell>
        <mxCell id="-u48h02nbhvRu0iuAJor-16" value="abstract.swagger.ts" style="rounded=1;whiteSpace=wrap;html=1;fillColor=#fff2cc;strokeColor=#d6b656;" vertex="1" parent="-u48h02nbhvRu0iuAJor-6">
          <mxGeometry x="20" y="410" width="180" height="30" as="geometry" />
        </mxCell>
        <mxCell id="-u48h02nbhvRu0iuAJor-17" value="abstract.asyncapi.ts" style="rounded=1;whiteSpace=wrap;html=1;fillColor=#fff2cc;strokeColor=#d6b656;" vertex="1" parent="-u48h02nbhvRu0iuAJor-6">
          <mxGeometry x="20" y="450" width="180" height="30" as="geometry" />
        </mxCell>
        <mxCell id="-u48h02nbhvRu0iuAJor-18" value="abstract.validator.ts" style="rounded=1;whiteSpace=wrap;html=1;fillColor=#fff2cc;strokeColor=#d6b656;" vertex="1" parent="-u48h02nbhvRu0iuAJor-6">
          <mxGeometry x="20" y="490" width="180" height="30" as="geometry" />
        </mxCell>
        <mxCell id="-u48h02nbhvRu0iuAJor-19" value="index.ts" style="rounded=1;whiteSpace=wrap;html=1;fillColor=#dae8fc;strokeColor=#6c8ebf;" vertex="1" parent="1">
          <mxGeometry x="1050" y="520" width="91" height="30" as="geometry" />
        </mxCell>
        <mxCell id="-u48h02nbhvRu0iuAJor-20" style="edgeStyle=orthogonalEdgeStyle;rounded=1;orthogonalLoop=1;jettySize=auto;html=1;entryX=1;entryY=0.5;entryDx=0;entryDy=0;exitX=0;exitY=0.5;exitDx=0;exitDy=0;dashed=1;fillColor=#fff2cc;strokeColor=#d6b656;" edge="1" parent="1" source="-u48h02nbhvRu0iuAJor-7" target="-u48h02nbhvRu0iuAJor-19">
          <mxGeometry relative="1" as="geometry">
            <Array as="points">
              <mxPoint x="1190" y="315" />
              <mxPoint x="1190" y="535" />
            </Array>
          </mxGeometry>
        </mxCell>
        <mxCell id="-u48h02nbhvRu0iuAJor-21" style="edgeStyle=orthogonalEdgeStyle;rounded=1;orthogonalLoop=1;jettySize=auto;html=1;entryX=1;entryY=0.5;entryDx=0;entryDy=0;exitX=0;exitY=0.5;exitDx=0;exitDy=0;fillColor=#fff2cc;strokeColor=#d6b656;dashed=1;" edge="1" parent="1" source="-u48h02nbhvRu0iuAJor-8" target="-u48h02nbhvRu0iuAJor-19">
          <mxGeometry relative="1" as="geometry" />
        </mxCell>
        <mxCell id="-u48h02nbhvRu0iuAJor-22" style="edgeStyle=orthogonalEdgeStyle;rounded=1;orthogonalLoop=1;jettySize=auto;html=1;entryX=1;entryY=0.5;entryDx=0;entryDy=0;exitX=0;exitY=0.5;exitDx=0;exitDy=0;fillColor=#fff2cc;strokeColor=#d6b656;dashed=1;" edge="1" parent="1" source="-u48h02nbhvRu0iuAJor-9" target="-u48h02nbhvRu0iuAJor-19">
          <mxGeometry relative="1" as="geometry" />
        </mxCell>
        <mxCell id="-u48h02nbhvRu0iuAJor-23" style="edgeStyle=orthogonalEdgeStyle;rounded=1;orthogonalLoop=1;jettySize=auto;html=1;exitX=0;exitY=0.5;exitDx=0;exitDy=0;entryX=1;entryY=0.5;entryDx=0;entryDy=0;fillColor=#fff2cc;strokeColor=#d6b656;dashed=1;" edge="1" parent="1" source="-u48h02nbhvRu0iuAJor-10" target="-u48h02nbhvRu0iuAJor-19">
          <mxGeometry relative="1" as="geometry">
            <mxPoint x="1140" y="475" as="targetPoint" />
          </mxGeometry>
        </mxCell>
        <mxCell id="-u48h02nbhvRu0iuAJor-24" style="edgeStyle=orthogonalEdgeStyle;rounded=1;orthogonalLoop=1;jettySize=auto;html=1;exitX=0;exitY=0.5;exitDx=0;exitDy=0;entryX=1;entryY=0.5;entryDx=0;entryDy=0;fillColor=#fff2cc;strokeColor=#d6b656;dashed=1;" edge="1" parent="1" source="-u48h02nbhvRu0iuAJor-11" target="-u48h02nbhvRu0iuAJor-19">
          <mxGeometry relative="1" as="geometry">
            <mxPoint x="1140" y="475" as="targetPoint" />
          </mxGeometry>
        </mxCell>
        <mxCell id="-u48h02nbhvRu0iuAJor-25" style="edgeStyle=orthogonalEdgeStyle;rounded=1;orthogonalLoop=1;jettySize=auto;html=1;entryX=1;entryY=0.5;entryDx=0;entryDy=0;fillColor=#fff2cc;strokeColor=#d6b656;dashed=1;" edge="1" parent="1" source="-u48h02nbhvRu0iuAJor-12" target="-u48h02nbhvRu0iuAJor-19">
          <mxGeometry relative="1" as="geometry" />
        </mxCell>
        <mxCell id="-u48h02nbhvRu0iuAJor-26" style="edgeStyle=orthogonalEdgeStyle;rounded=1;orthogonalLoop=1;jettySize=auto;html=1;entryX=1;entryY=0.5;entryDx=0;entryDy=0;fillColor=#fff2cc;strokeColor=#d6b656;dashed=1;" edge="1" parent="1" source="-u48h02nbhvRu0iuAJor-13" target="-u48h02nbhvRu0iuAJor-19">
          <mxGeometry relative="1" as="geometry" />
        </mxCell>
        <mxCell id="-u48h02nbhvRu0iuAJor-27" style="edgeStyle=orthogonalEdgeStyle;rounded=1;orthogonalLoop=1;jettySize=auto;html=1;entryX=1;entryY=0.5;entryDx=0;entryDy=0;fillColor=#fff2cc;strokeColor=#d6b656;dashed=1;" edge="1" parent="1" source="-u48h02nbhvRu0iuAJor-14" target="-u48h02nbhvRu0iuAJor-19">
          <mxGeometry relative="1" as="geometry" />
        </mxCell>
        <mxCell id="-u48h02nbhvRu0iuAJor-28" style="edgeStyle=orthogonalEdgeStyle;rounded=1;orthogonalLoop=1;jettySize=auto;html=1;entryX=1;entryY=0.5;entryDx=0;entryDy=0;fillColor=#fff2cc;strokeColor=#d6b656;dashed=1;" edge="1" parent="1" source="-u48h02nbhvRu0iuAJor-15" target="-u48h02nbhvRu0iuAJor-19">
          <mxGeometry relative="1" as="geometry" />
        </mxCell>
        <mxCell id="-u48h02nbhvRu0iuAJor-29" style="edgeStyle=orthogonalEdgeStyle;rounded=1;orthogonalLoop=1;jettySize=auto;html=1;entryX=1;entryY=0.5;entryDx=0;entryDy=0;fillColor=#fff2cc;strokeColor=#d6b656;dashed=1;" edge="1" parent="1" source="-u48h02nbhvRu0iuAJor-16" target="-u48h02nbhvRu0iuAJor-19">
          <mxGeometry relative="1" as="geometry" />
        </mxCell>
        <mxCell id="-u48h02nbhvRu0iuAJor-30" style="edgeStyle=orthogonalEdgeStyle;rounded=1;orthogonalLoop=1;jettySize=auto;html=1;entryX=1;entryY=0.5;entryDx=0;entryDy=0;fillColor=#fff2cc;strokeColor=#d6b656;dashed=1;" edge="1" parent="1" source="-u48h02nbhvRu0iuAJor-17" target="-u48h02nbhvRu0iuAJor-19">
          <mxGeometry relative="1" as="geometry" />
        </mxCell>
        <mxCell id="-u48h02nbhvRu0iuAJor-31" style="edgeStyle=orthogonalEdgeStyle;rounded=1;orthogonalLoop=1;jettySize=auto;html=1;entryX=1;entryY=0.5;entryDx=0;entryDy=0;fillColor=#fff2cc;strokeColor=#d6b656;dashed=1;" edge="1" parent="1" source="-u48h02nbhvRu0iuAJor-18" target="-u48h02nbhvRu0iuAJor-19">
          <mxGeometry relative="1" as="geometry" />
        </mxCell>
      </root>
    </mxGraphModel>
  </diagram>
</mxfile>
